<?xml version="1.0" encoding="UTF-8" standalone="no"?>
<!DOCTYPE svg PUBLIC "-//W3C//DTD SVG 1.1//EN" "http://www.w3.org/Graphics/SVG/1.1/DTD/svg11.dtd">
<svg version="1.1" xmlns="http://www.w3.org/2000/svg" xmlns:xlink="http://www.w3.org/1999/xlink" preserveAspectRatio="xMidYMid meet" viewBox="0 0 640 640" width="640" height="640"><defs><path d="M333.08 258.99C215.84 184.09 150.71 142.47 137.68 134.15C116.33 120.51 87.95 126.76 74.31 148.11C60.67 169.47 66.92 197.84 88.27 211.48C110.28 225.55 286.37 338.05 308.38 352.11C315.91 356.93 324.5 359.33 333.08 359.33C341.67 359.33 350.26 356.93 357.79 352.11C379.8 338.05 555.89 225.55 577.9 211.48C599.25 197.84 605.51 169.46 591.86 148.11C578.2 126.75 549.83 120.52 528.48 134.15C502.42 150.8 437.29 192.41 333.08 258.99Z" id="bi1hTXKbr"></path></defs><g><g><g><g><filter id="shadow10293271" x="58.09" y="117.93" width="551" height="251.4" filterUnits="userSpaceOnUse" primitiveUnits="userSpaceOnUse"><feFlood></feFlood><feComposite in2="SourceAlpha" operator="in"></feComposite><feGaussianBlur stdDeviation="1"></feGaussianBlur><feOffset dx="1" dy="1" result="afterOffset"></feOffset><feFlood flood-color="#00ffea" flood-opacity="0.5"></feFlood><feComposite in2="afterOffset" operator="in"></feComposite><feMorphology operator="dilate" radius="1"></feMorphology><feComposite in2="SourceAlpha" operator="out"></feComposite></filter><path d="M333.08 258.99C215.84 184.09 150.71 142.47 137.68 134.15C116.33 120.51 87.95 126.76 74.31 148.11C60.67 169.47 66.92 197.84 88.27 211.48C110.28 225.55 286.37 338.05 308.38 352.11C315.91 356.93 324.5 359.33 333.08 359.33C341.67 359.33 350.26 356.93 357.79 352.11C379.8 338.05 555.89 225.55 577.9 211.48C599.25 197.84 605.51 169.46 591.86 148.11C578.2 126.75 549.83 120.52 528.48 134.15C502.42 150.8 437.29 192.41 333.08 258.99Z" id="b3HmYW1Dm9" fill="white" fill-opacity="1" filter="url(#shadow10293271)"></path></g><use xlink:href="#bi1hTXKbr" opacity="1" fill="#ffffff" fill-opacity="1"></use><g><use xlink:href="#bi1hTXKbr" opacity="1" fill-opacity="0" stroke="#000000" stroke-width="1" stroke-opacity="0"></use></g><g><filter id="shadow4593961" x="58.09" y="117.93" width="551" height="251.4" filterUnits="userSpaceOnUse" primitiveUnits="userSpaceOnUse"><feFlood></feFlood><feComposite in2="SourceAlpha" operator="out"></feComposite><feGaussianBlur stdDeviation="1"></feGaussianBlur><feOffset dx="1" dy="1" result="afterOffset"></feOffset><feFlood flood-color="#ff0404" flood-opacity="0.5"></feFlood><feComposite in2="afterOffset" operator="in"></feComposite><feMorphology operator="dilate" radius="1"></feMorphology><feComposite in2="SourceAlpha" operator="in"></feComposite></filter><path d="M333.08 258.99C215.84 184.09 150.71 142.47 137.68 134.15C116.33 120.51 87.95 126.76 74.31 148.11C60.67 169.47 66.92 197.84 88.27 211.48C110.28 225.55 286.37 338.05 308.38 352.11C315.91 356.93 324.5 359.33 333.08 359.33C341.67 359.33 350.26 356.93 357.79 352.11C379.8 338.05 555.89 225.55 577.9 211.48C599.25 197.84 605.51 169.46 591.86 148.11C578.2 126.75 549.83 120.52 528.48 134.15C502.42 150.8 437.29 192.41 333.08 258.99Z" id="b59W1maut" fill="white" fill-opacity="1" filter="url(#shadow4593961)"></path></g></g></g></g></svg>